<svg width="500" height="500" viewBox="0 0 500 500" fill="none" xmlns="http://www.w3.org/2000/svg">
<rect width="500" height="500" rx="250" fill="white"/>
<mask id="mask0_11_128" style="mask-type:luminance" maskUnits="userSpaceOnUse" x="272" y="182" width="163" height="85">
<path d="M272.36 182.92H434.801V266.627H272.36V182.92Z" fill="white"/>
</mask>
<g mask="url(#mask0_11_128)">
<path d="M345.366 183.619C343.238 183.619 341.102 183.681 338.983 183.816C321.801 207.134 299.383 226.372 273.48 239.81C272.105 240.522 272.817 242.609 274.34 242.332C280.23 241.266 286.299 240.71 292.489 240.71C318.267 240.71 341.805 250.309 359.735 266.116C386.153 262.107 411.882 252.508 435.021 237.293C430.416 228.706 424.513 220.643 417.274 213.401C397.418 193.544 371.39 183.619 345.366 183.619Z" fill="#090909"/>
</g>
<path d="M342.414 105.852H342.401C312.018 105.852 284.749 119.168 266.116 140.296C270.456 168.936 268.221 198.382 259.397 226.202C258.931 227.68 260.907 228.652 261.794 227.38C265.198 222.462 269.099 217.781 273.48 213.401C291.705 195.171 315.136 185.303 339.001 183.816C354.848 162.303 366.248 137.313 371.856 110.201C362.517 107.374 352.64 105.852 342.414 105.852Z" fill="#090909"/>
<mask id="mask1_11_128" style="mask-type:luminance" maskUnits="userSpaceOnUse" x="182" y="65" width="85" height="163">
<path d="M182.92 65.0015H266.627V227.64H182.92V65.0015Z" fill="white"/>
</mask>
<g mask="url(#mask1_11_128)">
<path d="M237.288 65.0015C228.702 69.6016 220.635 75.5096 213.401 82.7434C191.914 104.23 182.056 132.924 183.816 161.035C207.143 178.217 226.381 200.635 239.81 226.547C240.522 227.927 242.609 227.214 242.332 225.687C241.266 219.797 240.71 213.732 240.71 207.533C240.71 181.751 250.305 158.213 266.116 140.287C262.107 113.874 252.499 88.1364 237.288 65.0015Z" fill="#090909"/>
</g>
<path d="M110.201 128.189C107.374 137.51 105.851 147.396 105.851 157.626C105.851 188.008 119.172 215.282 140.296 233.911C149.734 232.477 159.274 231.765 168.811 231.765C188.183 231.765 207.564 234.726 226.207 240.638C227.689 241.104 228.666 239.138 227.385 238.251C222.467 234.833 217.781 230.937 213.401 226.556C195.171 208.33 185.312 184.9 183.816 161.044C162.302 145.187 137.313 133.788 110.201 128.189Z" fill="#090909"/>
<mask id="mask2_11_128" style="mask-type:luminance" maskUnits="userSpaceOnUse" x="65" y="233" width="163" height="85">
<path d="M65.0015 233.373H227.64V317.08H65.0015V233.373Z" fill="white"/>
</mask>
<g mask="url(#mask2_11_128)">
<path d="M140.287 233.911C113.869 237.911 88.1364 247.519 65.0015 262.734C69.6016 271.321 75.5096 279.388 82.7434 286.622C102.609 306.478 128.633 316.408 154.656 316.408C156.78 316.408 158.916 316.337 161.035 316.202C178.226 292.875 200.635 273.646 226.543 260.213C227.918 259.5 227.206 257.413 225.678 257.686C219.788 258.757 213.723 259.308 207.524 259.317C181.751 259.317 158.213 249.718 140.287 233.911Z" fill="#090909"/>
</g>
<path d="M240.63 273.82C241.1 272.342 239.12 271.366 238.238 272.642C234.829 277.56 230.928 282.241 226.556 286.631C208.321 304.856 184.891 314.715 161.035 316.211C145.187 337.729 133.788 362.714 128.18 389.831C137.501 392.652 147.387 394.18 157.613 394.18H157.622C188.008 394.18 215.273 380.854 233.911 359.735C229.562 331.086 231.806 301.636 240.63 273.82Z" fill="#090909"/>
<mask id="mask3_11_128" style="mask-type:luminance" maskUnits="userSpaceOnUse" x="233" y="272" width="85" height="163">
<path d="M233.373 272.36H317.08V434.802H233.373V272.36Z" fill="white"/>
</mask>
<g mask="url(#mask3_11_128)">
<path d="M260.212 273.471C259.5 272.096 257.413 272.808 257.686 274.335C258.757 280.225 259.317 286.299 259.317 292.498C259.317 318.276 249.718 341.814 233.902 359.735C237.911 386.153 247.519 411.873 262.725 435.021C271.312 430.416 279.388 424.513 286.613 417.275C308.099 395.792 317.958 367.094 316.202 338.983C292.884 321.801 273.646 299.383 260.212 273.471Z" fill="#090909"/>
</g>
<path d="M273.811 259.388C272.333 258.922 271.352 260.889 272.633 261.776C277.56 265.193 282.25 269.081 286.631 273.471C304.856 291.696 314.715 315.136 316.211 338.992C337.729 354.839 362.714 366.239 389.831 371.838C392.653 362.517 394.18 352.631 394.18 342.401C394.18 312.018 380.863 284.749 359.74 266.116C350.293 267.549 340.761 268.266 331.225 268.266C311.844 268.266 292.458 265.301 273.811 259.388Z" fill="#090909"/>
</svg>
