<svg xmlns="http://www.w3.org/2000/svg" xmlns:xlink="http://www.w3.org/1999/xlink" width="500" zoomAndPan="magnify" viewBox="0 0 375 374.999991" height="500" preserveAspectRatio="xMidYMid meet" version="1.0"><defs><clipPath id="f551dda83f"><path d="M 207 129 L 348.664062 129 L 348.664062 202 L 207 202 Z M 207 129 " clip-rule="nonzero"/></clipPath><clipPath id="db5b67e248"><path d="M 129 26.164062 L 202 26.164062 L 202 168 L 129 168 Z M 129 26.164062 " clip-rule="nonzero"/></clipPath><clipPath id="d61468031e"><path d="M 26.164062 173 L 168 173 L 168 246 L 26.164062 246 Z M 26.164062 173 " clip-rule="nonzero"/></clipPath><clipPath id="bf1d8d631a"><path d="M 173 207 L 246 207 L 246 348.664062 L 173 348.664062 Z M 173 207 " clip-rule="nonzero"/></clipPath></defs><g clip-path="url(#f551dda83f)"><path fill="#ffffff" d="M 270.667969 129.609375 C 268.8125 129.609375 266.949219 129.664062 265.101562 129.78125 C 250.117188 150.117188 230.566406 166.894531 207.976562 178.613281 C 206.777344 179.234375 207.398438 181.054688 208.726562 180.8125 C 213.863281 179.882812 219.15625 179.398438 224.554688 179.398438 C 247.035156 179.398438 267.5625 187.769531 283.199219 201.554688 C 306.238281 198.058594 328.675781 189.6875 348.855469 176.417969 C 344.839844 168.929688 339.691406 161.898438 333.378906 155.582031 C 316.0625 138.265625 293.363281 129.609375 270.667969 129.609375 " fill-opacity="1" fill-rule="nonzero"/></g><path fill="#ffffff" d="M 268.09375 61.789062 L 268.082031 61.789062 C 241.585938 61.789062 217.804688 73.402344 201.554688 91.828125 C 205.339844 116.804688 203.390625 142.484375 195.695312 166.746094 C 195.289062 168.035156 197.011719 168.882812 197.785156 167.773438 C 200.753906 163.484375 204.15625 159.402344 207.976562 155.582031 C 223.871094 139.683594 244.304688 131.078125 265.117188 129.78125 C 278.9375 111.019531 288.878906 89.226562 293.769531 65.582031 C 285.625 63.117188 277.011719 61.789062 268.09375 61.789062 " fill-opacity="1" fill-rule="nonzero"/><g clip-path="url(#db5b67e248)"><path fill="#ffffff" d="M 176.414062 26.164062 C 168.925781 30.175781 161.890625 35.328125 155.582031 41.636719 C 136.84375 60.375 128.246094 85.398438 129.78125 109.914062 C 150.125 124.898438 166.902344 144.449219 178.613281 167.046875 C 179.234375 168.25 181.054688 167.628906 180.8125 166.296875 C 179.882812 161.160156 179.398438 155.871094 179.398438 150.464844 C 179.398438 127.980469 187.765625 107.453125 201.554688 91.820312 C 198.058594 68.785156 189.679688 46.339844 176.414062 26.164062 " fill-opacity="1" fill-rule="nonzero"/></g><path fill="#ffffff" d="M 65.582031 81.269531 C 63.117188 89.398438 61.789062 98.019531 61.789062 106.941406 C 61.789062 133.4375 73.40625 157.222656 91.828125 173.46875 C 100.058594 172.21875 108.378906 171.597656 116.695312 171.597656 C 133.589844 171.597656 150.492188 174.179688 166.75 179.335938 C 168.042969 179.742188 168.894531 178.027344 167.777344 177.253906 C 163.488281 174.273438 159.402344 170.875 155.582031 167.054688 C 139.683594 151.160156 131.085938 130.726562 129.78125 109.921875 C 111.019531 96.09375 89.226562 86.152344 65.582031 81.269531 " fill-opacity="1" fill-rule="nonzero"/><g clip-path="url(#d61468031e)"><path fill="#ffffff" d="M 91.820312 173.46875 C 68.78125 176.957031 46.339844 185.335938 26.164062 198.605469 C 30.175781 206.09375 35.328125 213.128906 41.636719 219.4375 C 58.960938 236.753906 81.65625 245.414062 104.351562 245.414062 C 106.203125 245.414062 108.066406 245.351562 109.914062 245.234375 C 124.90625 224.890625 144.449219 208.121094 167.042969 196.40625 C 168.242188 195.785156 167.621094 193.964844 166.289062 194.203125 C 161.152344 195.136719 155.863281 195.617188 150.457031 195.625 C 127.980469 195.625 107.453125 187.253906 91.820312 173.46875 " fill-opacity="1" fill-rule="nonzero"/></g><path fill="#ffffff" d="M 179.328125 208.273438 C 179.738281 206.984375 178.011719 206.132812 177.242188 207.246094 C 174.269531 211.535156 170.867188 215.617188 167.054688 219.445312 C 151.152344 235.339844 130.71875 243.9375 109.914062 245.242188 C 96.09375 264.007812 86.152344 285.796875 81.261719 309.445312 C 89.390625 311.90625 98.011719 313.238281 106.929688 313.238281 C 106.929688 313.238281 106.9375 313.238281 106.9375 313.238281 C 133.4375 313.238281 157.214844 301.617188 173.46875 283.199219 C 169.675781 258.214844 171.632812 232.53125 179.328125 208.273438 Z M 179.328125 208.273438 " fill-opacity="1" fill-rule="nonzero"/><g clip-path="url(#bf1d8d631a)"><path fill="#ffffff" d="M 196.40625 207.96875 C 195.785156 206.769531 193.964844 207.390625 194.203125 208.722656 C 195.136719 213.859375 195.625 219.15625 195.625 224.5625 C 195.625 247.042969 187.253906 267.570312 173.460938 283.199219 C 176.957031 306.238281 185.335938 328.667969 198.597656 348.855469 C 206.085938 344.839844 213.128906 339.691406 219.429688 333.378906 C 238.167969 314.644531 246.765625 289.617188 245.234375 265.101562 C 224.898438 250.117188 208.121094 230.566406 196.40625 207.96875 Z M 196.40625 207.96875 " fill-opacity="1" fill-rule="nonzero"/></g><path fill="#ffffff" d="M 208.265625 195.6875 C 206.976562 195.28125 206.121094 196.996094 207.238281 197.769531 C 211.535156 200.75 215.625 204.140625 219.445312 207.96875 C 235.339844 223.863281 243.9375 244.304688 245.242188 265.109375 C 264.007812 278.929688 285.796875 288.871094 309.445312 293.753906 C 311.90625 285.625 313.238281 277.003906 313.238281 268.082031 C 313.238281 241.585938 301.625 217.804688 283.203125 201.554688 C 274.964844 202.804688 266.652344 203.429688 258.335938 203.429688 C 241.433594 203.429688 224.527344 200.84375 208.265625 195.6875 Z M 208.265625 195.6875 " fill-opacity="1" fill-rule="nonzero"/></svg>